<svg width="49" height="49" viewBox="0 0 49 49" fill="none" xmlns="http://www.w3.org/2000/svg">
<path d="M24.6667 44.0972C35.7124 44.0972 44.6667 35.1429 44.6667 24.0972C44.6667 13.0515 35.7124 4.09717 24.6667 4.09717C13.621 4.09717 4.66666 13.0515 4.66666 24.0972C4.66666 35.1429 13.621 44.0972 24.6667 44.0972Z" stroke="black" stroke-width="2" stroke-linecap="round" stroke-linejoin="round"/>
<path d="M24.6667 32.0972C29.0849 32.0972 32.6667 28.5154 32.6667 24.0972C32.6667 19.6789 29.0849 16.0972 24.6667 16.0972C20.2484 16.0972 16.6667 19.6789 16.6667 24.0972C16.6667 28.5154 20.2484 32.0972 24.6667 32.0972Z" stroke="black" stroke-width="2" stroke-linecap="round" stroke-linejoin="round"/>
<path d="M10.5267 9.95703L19.0067 18.437" stroke="black" stroke-width="2" stroke-linecap="round" stroke-linejoin="round"/>
<path d="M30.3267 29.7573L38.8067 38.2373" stroke="black" stroke-width="2" stroke-linecap="round" stroke-linejoin="round"/>
<path d="M30.3267 18.437L38.8067 9.95703" stroke="black" stroke-width="2" stroke-linecap="round" stroke-linejoin="round"/>
<path d="M30.3267 18.437L37.3867 11.377" stroke="black" stroke-width="2" stroke-linecap="round" stroke-linejoin="round"/>
<path d="M10.5267 38.2373L19.0067 29.7573" stroke="black" stroke-width="2" stroke-linecap="round" stroke-linejoin="round"/>
</svg>
