<svg width="48" height="49" viewBox="0 0 48 49" fill="none" xmlns="http://www.w3.org/2000/svg">
<path d="M32 6.09717H2V32.0972H32V6.09717Z" stroke="black" stroke-width="2" stroke-linecap="round" stroke-linejoin="round"/>
<path d="M32 16.0972H40L46 22.0972V32.0972H32V16.0972Z" stroke="black" stroke-width="2" stroke-linecap="round" stroke-linejoin="round"/>
<path d="M11 42.0972C13.7614 42.0972 16 39.8586 16 37.0972C16 34.3357 13.7614 32.0972 11 32.0972C8.23858 32.0972 6 34.3357 6 37.0972C6 39.8586 8.23858 42.0972 11 42.0972Z" stroke="black" stroke-width="2" stroke-linecap="round" stroke-linejoin="round"/>
<path d="M37 42.0972C39.7614 42.0972 42 39.8586 42 37.0972C42 34.3357 39.7614 32.0972 37 32.0972C34.2386 32.0972 32 34.3357 32 37.0972C32 39.8586 34.2386 42.0972 37 42.0972Z" stroke="black" stroke-width="2" stroke-linecap="round" stroke-linejoin="round"/>
</svg>
