<svg width="32" height="33" viewBox="0 0 32 33" fill="none" xmlns="http://www.w3.org/2000/svg">
<path d="M30.6666 4.09739C29.3898 4.99803 27.9761 5.68687 26.48 6.13739C25.677 5.21407 24.6098 4.55965 23.4227 4.26263C22.2356 3.96561 20.986 4.04032 19.8428 4.47666C18.6995 4.91301 17.7179 5.68993 17.0306 6.70235C16.3433 7.71477 15.9836 8.91384 16 10.1374V11.4707C13.6568 11.5315 11.335 11.0118 9.24132 9.95799C7.14764 8.90416 5.34707 7.34891 3.99998 5.43073C3.99998 5.43073 -1.33335 17.4307 10.6666 22.7641C7.92068 24.628 4.64952 25.5626 1.33331 25.4307C13.3333 32.0974 28 25.4307 28 10.0974C27.9988 9.726 27.963 9.35552 27.8933 8.99073C29.2541 7.64872 30.2144 5.95434 30.6666 4.09739Z" fill="#B9985D"/>
</svg>
