<svg width="32" height="33" viewBox="0 0 32 33" fill="none" xmlns="http://www.w3.org/2000/svg">
<path d="M22.6667 2.76465H9.33335C5.65146 2.76465 2.66669 5.74942 2.66669 9.43131V22.7646C2.66669 26.4465 5.65146 29.4313 9.33335 29.4313H22.6667C26.3486 29.4313 29.3334 26.4465 29.3334 22.7646V9.43131C29.3334 5.74942 26.3486 2.76465 22.6667 2.76465Z" fill="#B9985D"/>
<path d="M21.3334 15.2581C21.4979 16.3677 21.3084 17.501 20.7917 18.4967C20.275 19.4925 19.4575 20.2999 18.4555 20.8043C17.4535 21.3086 16.3179 21.4842 15.2104 21.306C14.1029 21.1277 13.0797 20.6048 12.2865 19.8116C11.4932 19.0184 10.9703 17.9952 10.7921 16.8877C10.6139 15.7801 10.7894 14.6446 11.2938 13.6426C11.7981 12.6405 12.6056 11.823 13.6013 11.3064C14.5971 10.7897 15.7304 10.6002 16.84 10.7647C17.9719 10.9326 19.0198 11.46 19.8289 12.2691C20.6381 13.0783 21.1655 14.1262 21.3334 15.2581Z" stroke="white" stroke-width="2" stroke-linecap="round" stroke-linejoin="round"/>
<path d="M23.3333 8.76465H23.3466" stroke="white" stroke-width="2" stroke-linecap="round" stroke-linejoin="round"/>
</svg>
